<svg id="bold" enable-background="new 0 0 24 24" height="512" viewBox="0 0 24 24" width="512" xmlns="http://www.w3.org/2000/svg"><path d="m11 11.761-7-2.625v7.864c0 .215.138.406.342.474l6.658 2.22z"/><path d="m13 11.761v7.932l6.658-2.219c.204-.068.342-.259.342-.474v-7.864z"/><path d="m23 7c-.553 0-1-.448-1-1v-.3l-.281-.102c-.52-.189-.787-.763-.598-1.282.188-.519.764-.786 1.281-.598l.939.342c.396.144.659.52.659.94v1c0 .552-.447 1-1 1z"/><path d="m23 16.23c-.553 0-1-.448-1-1v-1.846c0-.552.447-1 1-1s1 .448 1 1v1.846c0 .553-.447 1-1 1zm0-4.615c-.553 0-1-.448-1-1v-1.846c0-.552.447-1 1-1s1 .448 1 1v1.846c0 .552-.447 1-1 1z"/><path d="m21.121 19.684c-.189-.519.078-1.093.598-1.282l.281-.102v-.3c0-.552.447-1 1-1s1 .448 1 1v1c0 .42-.263.796-.658.94l-.939.342c-.515.188-1.092-.075-1.282-.598z"/><path d="m12.373 22.865c-.189-.519.078-1.093.598-1.282l1.749-.636c.518-.19 1.093.079 1.281.598.189.519-.078 1.093-.598 1.282l-1.749.636c-.514.188-1.091-.075-1.281-.598zm-2.027.598-1.749-.636c-.52-.189-.787-.763-.598-1.282.188-.519.761-.788 1.281-.598l1.749.636c.52.189.787.763.598 1.282-.187.514-.756.788-1.281.598zm6.4-2.189c-.189-.519.079-1.093.598-1.282l1.75-.636c.522-.188 1.093.079 1.281.598.189.519-.079 1.093-.598 1.282l-1.75.636c-.525.19-1.094-.084-1.281-.598zm-10.774.598-1.749-.636c-.52-.189-.787-.763-.598-1.282.188-.519.761-.786 1.281-.598l1.749.636c.52.189.787.763.598 1.282-.187.514-.756.788-1.281.598z"/><path d="m1.598 20.282-.94-.342c-.395-.144-.658-.52-.658-.94v-1c0-.552.447-1 1-1s1 .448 1 1v.3l.281.102c.52.189.787.763.598 1.282-.19.523-.767.786-1.281.598z"/><path d="m1 16.231c-.553 0-1-.448-1-1v-1.846c0-.552.447-1 1-1s1 .448 1 1v1.846c0 .552-.447 1-1 1zm0-4.615c-.553 0-1-.448-1-1v-1.846c0-.552.447-1 1-1s1 .448 1 1v1.846c0 .552-.447 1-1 1z"/><path d="m1 7c-.553 0-1-.448-1-1v-1c0-.42.263-.796.658-.94l.939-.342c.518-.188 1.093.079 1.282.598s-.078 1.093-.598 1.282l-.281.102v.3c0 .552-.447 1-1 1z"/><path d="m3.625 4.046c-.189-.519.079-1.093.598-1.282l1.75-.636c.521-.189 1.093.08 1.281.598.189.519-.079 1.093-.598 1.282l-1.75.636c-.525.19-1.094-.084-1.281-.598zm15.469.598-1.749-.636c-.52-.189-.787-.763-.598-1.282.188-.519.762-.787 1.281-.598l1.749.636c.52.189.787.763.598 1.282-.187.514-.756.788-1.281.598zm-4.374-1.591-1.749-.636c-.52-.189-.787-.763-.598-1.282.188-.519.761-.785 1.281-.598l1.749.636c.52.189.787.763.598 1.282-.187.515-.756.789-1.281.598zm-6.721-.598c-.189-.519.078-1.093.598-1.282l1.749-.636c.518-.188 1.093.079 1.281.598.189.519-.078 1.093-.598 1.282l-1.749.636c-.514.188-1.091-.075-1.281-.598z"/><path d="m12 4 8 3-8 3-8-3z"/></svg>