<svg id="_x31_px" enable-background="new 0 0 24 24" height="512" viewBox="0 0 24 24" width="512"
	 xmlns="http://www.w3.org/2000/svg">
	<path
		d="m23.5 6.5c-.276 0-.5-.224-.5-.5v-.659l-.613-.24c-.258-.101-.385-.391-.284-.648s.391-.386.647-.284l.932.364c.192.076.318.261.318.467v1c0 .276-.224.5-.5.5z"/>
	<path
		d="m23.5 16.786c-.276 0-.5-.224-.5-.5v-1.714c0-.276.224-.5.5-.5s.5.224.5.5v1.714c0 .276-.224.5-.5.5zm0-3.429c-.276 0-.5-.224-.5-.5v-1.714c0-.276.224-.5.5-.5s.5.224.5.5v1.714c0 .277-.224.5-.5.5zm0-3.428c-.276 0-.5-.224-.5-.5v-1.715c0-.276.224-.5.5-.5s.5.224.5.5v1.714c0 .277-.224.501-.5.501z"/>
	<path
		d="m22.568 19.864c-.2 0-.389-.121-.466-.318-.101-.257.026-.547.284-.648l.614-.239v-.659c0-.276.224-.5.5-.5s.5.224.5.5v1c0 .206-.126.391-.318.466l-.932.364c-.06.024-.121.034-.182.034z"/>
	<path
		d="m12 24c-.062 0-.124-.011-.183-.034l-.961-.376c-.257-.101-.384-.391-.283-.648s.389-.385.648-.284l.779.305.778-.305c.26-.102.548.026.648.284s-.026.547-.283.648l-.961.376c-.058.023-.12.034-.182.034zm2.883-1.128c-.2 0-.389-.121-.466-.318-.101-.257.026-.547.283-.648l1.922-.752c.26-.1.548.026.648.284s-.026.547-.283.648l-1.922.752c-.06.023-.122.034-.182.034zm-5.765 0c-.061 0-.122-.011-.183-.034l-1.922-.752c-.257-.101-.384-.391-.283-.648s.39-.383.648-.284l1.922.752c.257.101.384.391.283.648-.076.197-.266.318-.465.318zm-3.844-1.504c-.061 0-.122-.011-.183-.034l-1.921-.751c-.257-.101-.384-.391-.283-.648s.388-.386.648-.284l1.921.751c.257.101.384.391.283.648-.076.198-.265.318-.465.318zm13.452 0c-.199 0-.389-.121-.466-.318-.101-.257.026-.547.283-.648l1.922-.752c.261-.101.548.027.648.284.101.257-.026.547-.283.648l-1.922.752c-.06.023-.122.034-.182.034z"/>
	<path
		d="m1.432 19.864c-.061 0-.122-.011-.182-.034l-.932-.364c-.192-.075-.318-.26-.318-.466v-1c0-.276.224-.5.5-.5s.5.224.5.5v.659l.613.24c.258.101.385.391.284.648-.077.197-.265.317-.465.317z"/>
	<path
		d="m.5 16.786c-.276 0-.5-.224-.5-.5v-1.714c0-.276.224-.5.5-.5s.5.224.5.5v1.714c0 .276-.224.5-.5.5zm0-3.429c-.276 0-.5-.224-.5-.5v-1.714c0-.276.224-.5.5-.5s.5.224.5.5v1.714c0 .276-.224.5-.5.5zm0-3.428c-.276 0-.5-.224-.5-.5v-1.715c0-.276.224-.5.5-.5s.5.224.5.5v1.714c0 .277-.224.501-.5.501z"/>
	<path
		d="m.5 6.5c-.276 0-.5-.224-.5-.5v-1c0-.206.126-.391.318-.466l.932-.364c.256-.101.547.027.647.284.101.257-.026.547-.284.648l-.613.239v.659c0 .276-.224.5-.5.5z"/>
	<path
		d="m3.353 4.384c-.2 0-.389-.121-.466-.318-.101-.257.026-.547.283-.648l1.922-.752c.26-.101.548.027.648.284.101.257-.026.547-.283.648l-1.922.752c-.06.023-.122.034-.182.034zm17.293-.001c-.061 0-.122-.011-.183-.034l-1.921-.751c-.257-.101-.384-.391-.283-.648s.389-.384.648-.284l1.921.751c.257.101.384.391.283.648-.076.198-.264.318-.465.318zm-3.842-1.503c-.061 0-.122-.011-.183-.034l-1.922-.752c-.257-.101-.384-.391-.283-.648s.388-.385.648-.284l1.922.752c.257.101.384.391.283.648-.077.197-.266.318-.465.318zm-9.609 0c-.199 0-.389-.121-.466-.318-.1-.257.027-.547.284-.648l1.922-.752c.262-.1.548.026.648.284s-.026.547-.283.648l-1.922.752c-.061.023-.122.034-.183.034zm5.766-1.504c-.061 0-.122-.011-.183-.034l-.778-.305-.778.305c-.26.101-.548-.027-.648-.284-.101-.257.026-.547.282-.648l.961-.376c.117-.046.248-.046.365 0l.961.376c.257.101.384.391.283.648-.076.197-.266.318-.465.318z"/>
	<path
		d="m12 10c-.054 0-.106-.009-.158-.026l-7.5-2.5c-.204-.068-.342-.259-.342-.474s.138-.406.342-.474l7.5-2.5c.104-.034.213-.034.316 0l7.5 2.5c.204.068.342.259.342.474s-.138.406-.342.474l-7.5 2.5c-.052.017-.104.026-.158.026zm-5.919-3 5.919 1.973 5.919-1.973-5.919-1.973z"/>
	<path
		d="m12 20c-.054 0-.106-.009-.158-.026l-7.5-2.5c-.204-.068-.342-.259-.342-.474v-10c0-.276.224-.5.5-.5s.5.224.5.5v9.64l7 2.333 7-2.333v-9.64c0-.276.224-.5.5-.5s.5.224.5.5v10c0 .215-.138.406-.342.474l-7.5 2.5c-.052.017-.104.026-.158.026z"/>
	<path d="m12 20c-.276 0-.5-.224-.5-.5v-10c0-.276.224-.5.5-.5s.5.224.5.5v10c0 .276-.224.5-.5.5z"/>
</svg>
