<svg id="_x31__x2C_5" enable-background="new 0 0 24 24" height="512" viewBox="0 0 24 24" width="512" xmlns="http://www.w3.org/2000/svg"><path d="m8.25 9h-7.5c-.414 0-.75-.336-.75-.75v-7.5c0-.414.336-.75.75-.75h7.5c.414 0 .75.336.75.75v7.5c0 .414-.336.75-.75.75zm-6.75-1.5h6v-6h-6z"/><path d="m19 17c-.192 0-.384-.073-.53-.22l-4.25-4.25c-.293-.293-.293-.768 0-1.061l4.25-4.25c.293-.293.768-.293 1.061 0l4.25 4.25c.293.293.293.768 0 1.061l-4.25 4.25c-.147.147-.339.22-.531.22zm-3.189-5 3.189 3.189 3.189-3.189-3.189-3.189z"/><path d="m4.5 24c-2.481 0-4.5-2.019-4.5-4.5s2.019-4.5 4.5-4.5 4.5 2.019 4.5 4.5-2.019 4.5-4.5 4.5zm0-7.5c-1.654 0-3 1.346-3 3s1.346 3 3 3 3-1.346 3-3-1.346-3-3-3z"/><path d="m19 8.25c-.414 0-.75-.336-.75-.75v-2.25h-9.75c-.414 0-.75-.336-.75-.75s.336-.75.75-.75h10.5c.414 0 .75.336.75.75v3c0 .414-.336.75-.75.75z"/><path d="m19 20.25h-10.5c-.414 0-.75-.336-.75-.75s.336-.75.75-.75h9.75v-2.25c0-.414.336-.75.75-.75s.75.336.75.75v3c0 .414-.336.75-.75.75z"/></svg>