<?xml version="1.0" encoding="iso-8859-1"?>
<!-- Generator: Adobe Illustrator 19.0.0, SVG Export Plug-In . SVG Version: 6.00 Build 0)  -->
<svg version="1.1" id="Capa_1" xmlns="http://www.w3.org/2000/svg" x="0px" y="0px"
	 viewBox="0 0 512.005 512.005" style="enable-background:new 0 0 512.005 512.005;" xml:space="preserve">
<g>
	<g>
		<path d="M25.755,255.995L210.203,71.547c4.16-4.16,4.16-10.923,0-15.083c-4.16-4.16-10.923-4.16-15.083,0l-192,192
			c-4.16,4.16-4.16,10.923,0,15.083l192,192c2.091,2.069,4.821,3.115,7.552,3.115c2.731,0,5.461-1.045,7.531-3.136
			c4.16-4.16,4.16-10.923,0-15.083L25.755,255.995z"/>
	</g>
</g>
	<g>
	<g>
		<path d="M501.339,245.328H10.672c-5.888,0-10.667,4.779-10.667,10.667s4.779,10.667,10.667,10.667h490.667
			c5.888,0,10.667-4.779,10.667-10.667S507.227,245.328,501.339,245.328z"/>
	</g>
</g>
	<g>
</g>
	<g>
</g>
	<g>
</g>
	<g>
</g>
	<g>
</g>
	<g>
</g>
	<g>
</g>
	<g>
</g>
	<g>
</g>
	<g>
</g>
	<g>
</g>
	<g>
</g>
	<g>
</g>
	<g>
</g>
	<g>
</g>
</svg>
