<svg id="_x31_px" enable-background="new 0 0 24 24" height="512" viewBox="0 0 24 24" width="512" xmlns="http://www.w3.org/2000/svg"><g id="XMLID_1_"><path d="m23.5 16.987c.28 0 .5.22.5.5 0 .27-.22.5-.5.5h-.5v-1z"/><path d="m14 16.987h9v1h-9z"/><path d="m18 13.997h1v.5h-1z"/><path d="m14 16.987v1h-.5c-.28 0-.5-.23-.5-.5 0-.28.22-.5.5-.5z"/><path d="m15 23.997c-1.1 0-2-.89-2-2v-4.51c0 .27.22.5.5.5h.5v4.01c0 .55.45 1 1 1h7c.55 0 1-.45 1-1v-4.01h.5c.28 0 .5-.23.5-.5v4.51c0 1.11-.9 2-2 2z"/><path d="m13 15.997c0-1.1.9-2 2-2h3v.5h1v-.5h3c1.1 0 2 .9 2 2v1.49c0-.28-.22-.5-.5-.5h-.5v-.99c0-.55-.45-1-1-1h-7c-.55 0-1 .45-1 1v.99h-.5c-.28 0-.5.22-.5.5z"/><path d="m11.5 10.997h1v.5h-1z"/><path d="m11.5 8.997h1v2h-1z"/><path d="m11.5 8.497h1v.5h-1z"/><path d="m10.5 16.987c.28 0 .5.22.5.5 0 .27-.22.5-.5.5h-.5v-1z"/><path d="m1 16.987h9v1h-9z"/><path d="m8.39 4.197c-1.06 0-1.89.86-1.89 1.9 0 1.05.83 1.9 1.85 1.9h6.78c1.31 0 2.37-1.09 2.37-2.43 0-1.29-.98-2.35-2.23-2.42-.18-.01-.35-.13-.42-.3-.51-1.12-1.63-1.85-2.85-1.85-1.56 0-2.9 1.19-3.11 2.77-.04.25-.25.43-.5.43zm6.74 4.8h-2.63v-.5h-1v.5h-3.15c-1.57 0-2.85-1.3-2.85-2.9 0-1.47 1.08-2.68 2.47-2.87.45-1.87 2.11-3.23 4.03-3.23 1.51 0 2.9.85 3.63 2.18 1.63.24 2.87 1.67 2.87 3.39 0 1.89-1.51 3.43-3.37 3.43z"/><path d="m5 12.497c0-.82.67-1.5 1.5-1.5h5v.5h1v-.5h5c.83 0 1.5.68 1.5 1.5v1.5h-1v-1.5c0-.27-.23-.5-.5-.5h-11c-.28 0-.5.23-.5.5v1.5h-1z"/><path d="m5 13.997h1v.5h-1z"/><path d="m1 16.987v1h-.5c-.28 0-.5-.23-.5-.5 0-.28.22-.5.5-.5z"/><path d="m2 22.997h7c.55 0 1-.45 1-1v-4.01h.5c.28 0 .5-.23.5-.5v4.51c0 1.11-.9 2-2 2h-7c-1.1 0-2-.89-2-2v-4.51c0 .27.22.5.5.5h.5v4.01c0 .55.45 1 1 1z"/><path d="m9 14.997h-7c-.55 0-1 .45-1 1v.99h-.5c-.28 0-.5.22-.5.5v-1.49c0-1.1.9-2 2-2h3v.5h1v-.5h3c1.1 0 2 .9 2 2v1.49c0-.28-.22-.5-.5-.5h-.5v-.99c0-.55-.45-1-1-1z"/></g></svg>