<svg id="Layer_1" enable-background="new 0 0 24 24" height="512" viewBox="0 0 24 24" width="512"
	 xmlns="http://www.w3.org/2000/svg">
	<g>
		<path
			d="m12 17c-2.757 0-5-2.243-5-5s2.243-5 5-5 5 2.243 5 5-2.243 5-5 5zm0-9c-2.206 0-4 1.794-4 4s1.794 4 4 4 4-1.794 4-4-1.794-4-4-4z"/>
	</g>
	<g>
		<path
			d="m13.7 24h-3.4c-.694 0-1.307-.493-1.458-1.172l-.461-2.048c-.768-.312-1.498-.735-2.175-1.263l-1.996.63c-.679.21-1.417-.076-1.756-.683l-1.697-2.934c-.346-.615-.229-1.375.28-1.854l1.542-1.417c-.052-.426-.079-.848-.079-1.259s.027-.833.079-1.259l-1.537-1.413c-.514-.483-.63-1.243-.288-1.853l1.704-2.946c.337-.6 1.076-.886 1.751-.677l1.998.63c.676-.526 1.406-.95 2.174-1.262l.461-2.05c.151-.677.764-1.17 1.458-1.17h3.4c.694 0 1.307.493 1.458 1.171l.461 2.049c.768.312 1.498.735 2.175 1.263l1.996-.63c.679-.21 1.416.077 1.756.682l1.697 2.934c.345.616.229 1.376-.28 1.855l-1.542 1.417c.052.426.079.848.079 1.259s-.027.833-.079 1.259l1.538 1.413c.001.001.003.003.004.004.509.479.625 1.239.283 1.849l-1.704 2.946c-.336.6-1.075.888-1.751.677l-1.998-.63c-.677.527-1.407.951-2.175 1.263l-.461 2.05c-.15.676-.763 1.169-1.457 1.169zm-7.39-5.54c.115 0 .227.04.318.114.724.597 1.516 1.057 2.355 1.367.16.059.278.194.315.359l.52 2.31c.05.226.253.39.482.39h3.4c.229 0 .432-.164.481-.389l.521-2.311c.037-.165.155-.3.314-.359.839-.311 1.632-.771 2.355-1.367.13-.107.308-.14.468-.091l2.25.71c.229.073.472-.017.583-.218l1.704-2.946c.113-.202.074-.46-.098-.624l-1.728-1.587c-.122-.112-.181-.278-.156-.441.071-.467.106-.93.106-1.377s-.035-.91-.104-1.377c-.024-.164.034-.329.156-.441l1.73-1.59c.169-.159.209-.419.092-.627l-1.697-2.935c-.116-.206-.359-.297-.589-.223l-2.248.71c-.16.051-.337.017-.468-.091-.724-.597-1.516-1.057-2.355-1.367-.16-.059-.278-.194-.315-.359l-.52-2.31c-.05-.226-.253-.39-.482-.39h-3.4c-.229 0-.432.164-.481.388l-.521 2.312c-.037.165-.155.3-.315.359-.839.31-1.631.77-2.355 1.367-.129.108-.305.142-.468.091l-2.25-.71c-.23-.072-.471.018-.584.217l-1.703 2.946c-.113.203-.074.462.1.625l1.726 1.586c.122.112.181.278.156.441-.07.468-.105.931-.105 1.378s.035.91.104 1.377c.024.164-.034.329-.156.441l-1.73 1.59c-.169.159-.209.419-.092.627l1.697 2.934c.116.206.356.295.589.223l2.248-.709c.049-.015.1-.023.15-.023z"/>
	</g>
</svg>
