<svg height="512" viewBox="0 0 24 24" width="512" xmlns="http://www.w3.org/2000/svg">
	<path
		d="m21 24c-1.654 0-3-1.346-3-3 0-.864.361-1.666 1-2.236v-5.764c0-1.103.897-2 2-2s2 .897 2 2v5.764c.639.57 1 1.372 1 2.236 0 1.654-1.346 3-3 3zm0-12c-.552 0-1 .448-1 1v6c0 .157-.073.305-.199.399-.509.384-.801.967-.801 1.601 0 1.103.897 2 2 2s2-.897 2-2c0-.634-.292-1.217-.801-1.601-.126-.094-.199-.242-.199-.399v-6c0-.552-.448-1-1-1z"/>
	<path
		d="m15.5 19h-10c-1.379 0-2.5-1.121-2.5-2.5v-11c0-1.379 1.121-2.5 2.5-2.5h11c1.379 0 2.5 1.121 2.5 2.5v3.001c0 .276-.224.5-.5.5s-.5-.224-.5-.5v-3.001c0-.827-.673-1.5-1.5-1.5h-11c-.827 0-1.5.673-1.5 1.5v11c0 .827.673 1.5 1.5 1.5h10c.276 0 .5.224.5.5s-.224.5-.5.5z"/>
	<path d="m6.5 22c-.276 0-.5-.224-.5-.5v-3c0-.276.224-.5.5-.5s.5.224.5.5v3c0 .276-.224.5-.5.5z"/>
	<path d="m11 22c-.276 0-.5-.224-.5-.5v-3c0-.276.224-.5.5-.5s.5.224.5.5v3c0 .276-.224.5-.5.5z"/>
	<path d="m11 4c-.276 0-.5-.224-.5-.5v-3c0-.276.224-.5.5-.5s.5.224.5.5v3c0 .276-.224.5-.5.5z"/>
	<path d="m6.5 4c-.276 0-.5-.224-.5-.5v-3c0-.276.224-.5.5-.5s.5.224.5.5v3c0 .276-.224.5-.5.5z"/>
	<path d="m15.5 4c-.276 0-.5-.224-.5-.5v-3c0-.276.224-.5.5-.5s.5.224.5.5v3c0 .276-.224.5-.5.5z"/>
	<path d="m3.5 11.5h-3c-.276 0-.5-.224-.5-.5s.224-.5.5-.5h3c.276 0 .5.224.5.5s-.224.5-.5.5z"/>
	<path d="m3.5 7h-3c-.276 0-.5-.224-.5-.5s.224-.5.5-.5h3c.276 0 .5.224.5.5s-.224.5-.5.5z"/>
	<path d="m3.5 16h-3c-.276 0-.5-.224-.5-.5s.224-.5.5-.5h3c.276 0 .5.224.5.5s-.224.5-.5.5z"/>
	<path d="m21.5 7h-3c-.276 0-.5-.224-.5-.5s.224-.5.5-.5h3c.276 0 .5.224.5.5s-.224.5-.5.5z"/>
	<path
		d="m14.5 16h-7c-.827 0-1.5-.673-1.5-1.5v-7c0-.827.673-1.5 1.5-1.5h3.586c.4 0 .777.156 1.061.439l3.414 3.414c.279.28.439.667.439 1.061v3.586c0 .827-.673 1.5-1.5 1.5zm-7-9c-.275 0-.5.225-.5.5v7c0 .275.225.5.5.5h7c.275 0 .5-.225.5-.5v-3.586c0-.132-.054-.261-.146-.354l-3.414-3.414c-.095-.094-.22-.146-.354-.146z"/>
</svg>