<svg height="512pt" viewBox="-3 0 512 512" width="512pt" xmlns="http://www.w3.org/2000/svg"><path d="m317.5 341.332031c1.089844-6.976562 1.621094-14.144531 1.621094-21.332031 0-7.148438-.53125-14.230469-1.597656-21.164062l35.261718-27.667969c8.277344-6.507813 10.5625-18.28125 5.3125-27.457031l-22.761718-39.421876c-5.292969-9.152343-16.660157-13.078124-26.453126-9.132812l-41.558593 16.746094c-11.347657-9.148438-23.660157-16.277344-36.691407-21.226563l-6.316406-44.371093c-1.492187-10.433594-10.558594-18.304688-21.121094-18.304688h-45.480468c-10.5625 0-19.628906 7.871094-21.121094 18.324219l-6.316406 44.394531c-13.054688 5.015625-25.492188 12.226562-36.519532 21.183594l-41.75-16.746094c-9.792968-3.925781-21.140624 0-26.433593 9.132812l-22.742188 39.421876c-5.289062 9.175781-2.984375 20.992187 5.355469 27.476562l35.222656 27.480469c-1.089844 6.976562-1.621094 14.144531-1.621094 21.332031 0 7.148438.53125 14.230469 1.597657 21.164062l-35.261719 27.667969c-8.277344 6.507813-10.558594 18.28125-5.3125 27.457031l22.742188 39.421876c5.289062 9.132812 16.660156 13.058593 26.453124 9.132812l41.558594-16.746094c11.347656 9.148438 23.65625 16.277344 36.691406 21.226563l6.316407 44.371093c1.511719 10.433594 10.578125 18.304688 21.140625 18.304688h45.480468c10.5625 0 19.628907-7.871094 21.121094-18.324219l6.316406-44.394531c13.054688-5.015625 25.492188-12.226562 36.519532-21.183594l41.75 16.746094c9.835937 3.945312 21.164062.019531 26.433594-9.132812l22.742187-39.421876c5.289063-9.175781 2.984375-20.992187-5.355469-27.476562zm-137.042969 53.335938c-41.175781 0-74.667969-33.496094-74.667969-74.667969s33.492188-74.667969 74.667969-74.667969c41.171875 0 74.664063 33.496094 74.664063 74.667969s-33.492188 74.667969-74.664063 74.667969zm0 0"/><path d="m483.453125 116.671875c.40625-3.304687 1.003906-6.570313 1.003906-10.003906 0-3.4375-.597656-6.699219-1.003906-10.007813l19.222656-14.546875c4.285157-3.242187 5.480469-9.175781 2.792969-13.847656l-17.257812-29.867187c-2.6875-4.648438-8.429688-6.589844-13.378907-4.5l-22.121093 9.324218c-5.398438-4.117187-11.136719-7.746094-17.472657-10.390625l-2.941406-23.488281c-.683594-5.332031-5.207031-9.34375-10.582031-9.34375h-34.496094c-5.375 0-9.921875 4.011719-10.582031 9.34375l-2.945313 23.488281c-6.335937 2.644531-12.09375 6.292969-17.472656 10.390625l-22.121094-9.324218c-4.96875-2.089844-10.710937-.171876-13.398437 4.5l-17.234375 29.867187c-2.691406 4.652344-1.496094 10.582031 2.792968 13.847656l19.222657 14.546875c-.429688 3.308594-1.023438 6.570313-1.023438 10.007813 0 3.433593.59375 6.699219 1 10.003906l-19.21875 14.550781c-4.289062 3.242188-5.484375 9.171875-2.796875 13.84375l17.257813 29.867188c2.6875 4.652344 8.429687 6.589844 13.378906 4.5l22.121094-9.34375c5.398437 4.117187 11.136719 7.746094 17.472656 10.390625l2.941406 23.488281c.683594 5.355469 5.207031 9.363281 10.582031 9.363281h34.496094c5.378906 0 9.921875-4.007812 10.582032-9.34375l2.945312-23.488281c6.335938-2.644531 12.09375-6.292969 17.472656-10.386719l22.121094 9.320313c4.96875 2.089844 10.710938.171875 13.398438-4.5l17.234374-29.867188c2.691407-4.652344 1.496094-10.582031-2.792968-13.84375zm-78.996094 32.660156c-23.574219 0-42.667969-19.09375-42.667969-42.664062 0-23.574219 19.09375-42.667969 42.667969-42.667969 23.570313 0 42.664063 19.09375 42.664063 42.667969 0 23.570312-19.09375 42.664062-42.664063 42.664062zm0 0"/></svg>