<svg id="Layer_1" enable-background="new 0 0 299.859 299.859" viewBox="0 0 299.859 299.859"
	 xmlns="http://www.w3.org/2000/svg">
	<g>
		<g>
			<g>
				<path
					d="m287.662 97.391c-4.606-39.578-24.638-73.729-56.397-96.178-2.957-2.109-7.076-1.393-9.165 1.57-2.096 2.976-1.386 7.069 1.577 9.159 28.665 20.268 46.746 51.154 50.931 86.967 4.954 42.692-10.65 87.953-42.843 124.193-2.398 2.707-2.155 6.866.552 9.277 1.242 1.104 2.812 1.656 4.362 1.656 1.813 0 3.62-.742 4.927-2.208 34.676-39.033 51.456-88.032 46.056-134.436z"/>
				<path
					d="m255.147 101.195c-3.528-30.268-18.711-56.265-42.744-73.209-49.125-34.552-116.618-21.333-164.119 32.166-2.405 2.713-2.168 6.866.552 9.277 2.694 2.405 6.853 2.162 9.277-.552 42.908-48.348 103.254-60.726 146.727-30.156 20.945 14.756 34.157 37.475 37.252 63.979 3.889 33.441-8.804 69.412-34.788 98.668-34.716 39.111-56.568 59.347-93.57 86.652-2.917 2.142-3.541 6.261-1.386 9.172 1.301 1.741 3.272 2.667 5.295 2.667 1.36 0 2.727-.407 3.896-1.248 37.856-27.922 60.181-48.598 95.6-88.491 28.462-32.069 42.318-71.765 38.008-108.925z"/>
				<path
					d="m125.849 236.905c-2.759 2.359-3.088 6.504-.742 9.264 1.307 1.531 3.16 2.313 5.006 2.313 1.511 0 3.029-.512 4.238-1.564 18.573-15.794 34.906-32.219 58.289-58.578 22.292-25.078 33.224-55.477 29.979-83.406-.407-3.6-3.613-6.196-7.273-5.768-3.62.407-6.189 3.666-5.775 7.273 2.812 24.217-6.925 50.878-26.74 73.17-22.943 25.872-38.914 41.922-56.982 57.296z"/>
				<path
					d="m17.799 149.728c1.393 0 2.792-.434 3.968-1.34 22.134-16.878 36.904-30.925 60.812-57.79 31.989-36.036 73.551-46.128 103.412-25.111 2.996 2.089 7.063 1.393 9.165-1.583 2.096-2.983 1.373-7.082-1.59-9.159-35.596-25.058-84.142-14.165-120.802 27.128-23.258 26.135-37.58 39.768-58.959 56.062-2.884 2.208-3.436 6.327-1.235 9.205 1.287 1.694 3.245 2.588 5.229 2.588z"/>
				<path
					d="m168.186 166.639c15.873-17.87 24.059-39.519 21.931-57.915-1.36-11.668-6.688-21.07-15.426-27.226-21.313-15.006-52.442-6.117-77.493 22.088-29.729 33.474-46.844 48.855-83.248 74.826-2.95 2.116-3.627 6.209-1.524 9.172 2.122 2.95 6.209 3.614 9.172 1.524 37.364-26.655 54.925-42.442 85.443-76.797 16.97-19.125 42.147-32.719 60.102-20.084 7.056 4.98 9.29 12.529 9.934 17.995 1.702 14.73-5.276 32.554-18.711 47.672-34.578 38.973-54.498 56.89-96.835 87.145-2.95 2.109-3.633 6.215-1.518 9.165 1.275 1.794 3.285 2.746 5.341 2.746 1.327 0 2.654-.394 3.804-1.202 43.295-30.938 63.655-49.269 99.028-89.109z"/>
				<path
					d="m152.123 127.58c2.313-2.799 1.925-6.925-.861-9.251-2.805-2.319-6.931-1.938-9.251.861-36.7 44.183-58.355 64.176-105.304 97.256-2.963 2.096-3.666 6.189-1.577 9.165 1.268 1.813 3.311 2.786 5.368 2.786 1.307 0 2.628-.394 3.778-1.222 48.079-33.869 70.253-54.347 107.847-99.595z"/>
			</g>
		</g>
	</g>
	<g/>
	<g/>
	<g/>
	<g/>
	<g/>
	<g/>
	<g/>
	<g/>
	<g/>
	<g/>
	<g/>
	<g/>
	<g/>
	<g/>
	<g/>
</svg>
