<?xml version="1.0" encoding="iso-8859-1"?>
<!-- Generator: Adobe Illustrator 19.0.0, SVG Export Plug-In . SVG Version: 6.00 Build 0)  -->
<svg version="1.1" id="Layer_1" xmlns="http://www.w3.org/2000/svg" xmlns:xlink="http://www.w3.org/1999/xlink" x="0px" y="0px"
	 viewBox="0 0 512 512" style="enable-background:new 0 0 512 512;" xml:space="preserve">
<g>
	<g>
		<path d="M477.413,387.577c-1.749-8.185-4.361-16.016-8.24-23.113c0.043-0.6,0.16-1.184,0.16-1.797v-256
			c0-23.531-19.146-42.667-42.667-42.667h-198.25l-39.542-39.542c-2-2-4.708-3.125-7.542-3.125H42.667C19.146,21.333,0,40.469,0,64
			v298.667c0,23.531,19.146,42.667,42.667,42.667h217.264C257.54,412.039,256,419.15,256,426.667c0,35.292,28.708,64,64,64h138.667
			c29.417,0,53.333-23.927,53.333-53.333C512,414.544,497.569,395.197,477.413,387.577z M272.646,384H42.667
			c-11.771,0-21.333-9.573-21.333-21.333V64c0-11.76,9.563-21.333,21.333-21.333h134.25l39.542,39.542c2,2,4.708,3.125,7.542,3.125
			h202.667c11.771,0,21.333,9.573,21.333,21.333v232.622C433.301,327.307,414.764,320,394.667,320
			c-30.378,0-58.355,16.643-73.507,42.803c-0.393-0.008-0.767-0.137-1.16-0.137C301.159,362.667,284.368,371.001,272.646,384z
			 M458.667,469.333H320c-23.521,0-42.667-19.135-42.667-42.667S296.479,384,320,384c13.542,0,26,6.219,34.146,17.063
			c3.521,4.708,10.208,5.656,14.938,2.125c4.708-3.542,5.646-10.229,2.104-14.938c-7.133-9.505-16.917-16.371-27.76-20.681
			c11.932-16.181,30.861-26.236,51.24-26.236c27.587,0,51.536,17.991,60.169,43.439c-3.988,1.544-6.836,5.358-6.836,9.895
			c0,5.896,4.771,10.667,10.667,10.667c17.646,0,32,14.354,32,32C490.667,454.979,476.313,469.333,458.667,469.333z"/>
	</g>
</g>
<g>
</g>
<g>
</g>
<g>
</g>
<g>
</g>
<g>
</g>
<g>
</g>
<g>
</g>
<g>
</g>
<g>
</g>
<g>
</g>
<g>
</g>
<g>
</g>
<g>
</g>
<g>
</g>
<g>
</g>
</svg>
