<svg id="bold" enable-background="new 0 0 24 24" height="512" viewBox="0 0 24 24" width="512"
	 xmlns="http://www.w3.org/2000/svg">
	<path
		d="m7.732 5 1.414 1.414c.375.375.884.586 1.415.586h10.689c.414 0 .75.336.75.75v10.5c0 .414-.336.75-.75.75h-18.5c-.414 0-.75-.336-.75-.75v-12.5c0-.414.336-.75.75-.75zm.518-2h-5.5c-1.517 0-2.75 1.233-2.75 2.75v12.5c0 1.517 1.233 2.75 2.75 2.75h18.5c1.517 0 2.75-1.233 2.75-2.75v-10.5c0-1.517-1.233-2.75-2.75-2.75h-10.689l-1.781-1.78c-.14-.141-.331-.22-.53-.22z"/>
	<path
		d="m7.75 12.5c.414 0 .75.336.75.75s-.336.75-.75.75h-1.75v1.25c0 .414-.336.75-.75.75s-.75-.336-.75-.75v-3.5c0-.965.785-1.75 1.75-1.75h1.5c.414 0 .75.336.75.75s-.336.75-.75.75h-1.5c-.138 0-.25.112-.25.25v.75z"/>
	<path
		d="m13.75 11.5h-1v3.75c0 .414-.336.75-.75.75s-.75-.336-.75-.75v-3.75h-1c-.414 0-.75-.336-.75-.75s.336-.75.75-.75h3.5c.414 0 .75.336.75.75s-.336.75-.75.75z"/>
	<path
		d="m17.5 10h-1.25c-.414 0-.75.336-.75.75v4.5c0 .414.336.75.75.75s.75-.336.75-.75v-1.25h.5c1.103 0 2-.897 2-2s-.897-2-2-2zm0 2.5h-.5v-1h.5c.275 0 .5.225.5.5s-.225.5-.5.5z"/>
</svg>