<svg id="bold" height="512" viewBox="0 0 24 24" width="512"
	 xmlns="http://www.w3.org/2000/svg">
	<path
		d="m3.826 24.004c-.614 0-1.194-.138-1.72-.417-1.249-.661-1.99-2.012-2.088-3.805-.153-2.802.635-5.533 2.41-8.349 1.4-2.219 3.078-2.861 5.607-2.152 1.121.316 2.307.617 3.447.585 1.022-.018 2.129-.204 3.482-.585 2.533-.712 4.209-.068 5.608 2.152 1.774 2.816 2.563 5.547 2.41 8.349-.098 1.793-.84 3.145-2.088 3.805-1.306.691-2.948.517-4.619-.491-1.166-.703-2.238-1.419-3.223-2.089-.912-.62-2.19-.62-3.103 0-.985.67-2.057 1.387-3.223 2.089-.999.603-1.988.908-2.9.908zm2.419-13.006c-.886 0-1.461.45-2.125 1.502-1.546 2.453-2.234 4.799-2.105 7.173.058 1.065.423 1.828 1.027 2.147.651.345 1.619.186 2.651-.436 1.125-.678 2.169-1.376 3.13-2.03 1.577-1.074 3.775-1.074 5.353 0 .961.653 2.006 1.352 3.13 2.03 1.032.623 2 .782 2.651.436.604-.319.969-1.082 1.027-2.147.129-2.374-.559-4.72-2.105-7.173-.931-1.477-1.685-1.769-3.374-1.293-1.522.429-2.79.638-3.988.66-1.398.016-2.756-.303-4.024-.66-.484-.137-.891-.209-1.248-.209zm5.255-.131h.01z"/>
	<path
		d="m8.25 16.75h-3.5c-.414 0-.75-.336-.75-.75s.336-.75.75-.75h3.5c.414 0 .75.336.75.75s-.336.75-.75.75z"/>
	<path
		d="m6.5 18.5c-.414 0-.75-.336-.75-.75v-3.5c0-.414.336-.75.75-.75s.75.336.75.75v3.5c0 .414-.336.75-.75.75z"/>
	<path
		d="m11.5 11.25c-.552 0-1-.448-1-1v-1.25c0-2.206 1.794-4 4-4h5.5c1.103 0 2-.897 2-2v-2c0-.552.448-1 1-1s1 .448 1 1v2c0 2.206-1.794 4-4 4h-5.5c-1.103 0-2 .897-2 2v1.25c0 .552-.448 1-1 1z"/>
	<path d="m17 18c-1.103 0-2-.897-2-2s.897-2 2-2 2 .897 2 2-.897 2-2 2z"/>
</svg>
