<svg height="512" viewBox="0 0 24 24" width="512" xmlns="http://www.w3.org/2000/svg">
	<path
		d="m5.328 24c-1.42 0-2.754-.551-3.761-1.554-1.01-1.007-1.567-2.348-1.567-3.775v-1.167c0-3.035 2.469-5.504 5.503-5.504h12.997c3.032 0 5.5 2.467 5.5 5.5v1.174c0 2.937-2.389 5.326-5.325 5.326-1.877 0-3.58-.799-4.737-2.192-.44-.529-1.035-.808-1.667-.808h-.541c-.634 0-1.229.279-1.635.765-1.176 1.414-2.907 2.228-4.746 2.235-.007 0-.014 0-.021 0zm.175-11c-2.483 0-4.503 2.02-4.503 4.503v1.167c0 1.16.452 2.249 1.273 3.067.818.815 1.903 1.263 3.055 1.263h.017c1.544-.006 2.995-.689 3.983-1.875.596-.715 1.471-1.125 2.402-1.125h.541c.93 0 1.805.41 2.4 1.125 1.003 1.208 2.426 1.875 3.939 1.875 2.45 0 4.39-1.94 4.39-4.326v-1.174c0-2.481-2.019-4.5-4.5-4.5z"/>
	<path d="m6.5 18.5h-4c-.276 0-.5-.224-.5-.5s.224-.5.5-.5h4c.276 0 .5.224.5.5s-.224.5-.5.5z"/>
	<path
		d="m4.5 20.5c-.276 0-.5-.224-.5-.5v-4c0-.276.224-.5.5-.5s.5.224.5.5v4c0 .276-.224.5-.5.5z"/>
	<circle cx="20.75" cy="18" r=".75"/>
	<circle cx="19" cy="16.25" r=".75"/>
	<circle cx="19" cy="19.75" r=".75"/>
	<circle cx="17.25" cy="18" r=".75"/>
	<path d="m12.5 18h-1c-.276 0-.5-.224-.5-.5s.224-.5.5-.5h1c.276 0 .5.224.5.5s-.224.5-.5.5z"/>
	<path
		d="m14.5 13c-.276 0-.5-.224-.5-.5v-2c0-.276-.225-.5-.5-.5h-3c-.275 0-.5.224-.5.5v2c0 .276-.224.5-.5.5s-.5-.224-.5-.5v-2c0-.827.673-1.5 1.5-1.5h3c.827 0 1.5.673 1.5 1.5v2c0 .276-.224.5-.5.5z"/>
	<path
		d="m12 10c-.276 0-.5-.224-.5-.5v-5.75c0-2.068 1.683-3.75 3.75-3.75s3.75 1.682 3.75 3.75c0 1.241 1.01 2.25 2.25 2.25h2.25c.276 0 .5.224.5.5s-.224.5-.5.5h-2.25c-1.792 0-3.25-1.458-3.25-3.25 0-1.517-1.233-2.75-2.75-2.75s-2.75 1.233-2.75 2.75v5.75c0 .276-.224.5-.5.5z"/>
</svg>