<?xml version="1.0" encoding="iso-8859-1"?>
<!-- Generator: Adobe Illustrator 19.0.0, SVG Export Plug-In . SVG Version: 6.00 Build 0)  -->
<svg version="1.1" id="Capa_1" xmlns="http://www.w3.org/2000/svg" x="0px" y="0px"
	 viewBox="0 0 512 512" style="enable-background:new 0 0 512 512;" xml:space="preserve">
<g>
	<g>
		<path d="M394.667,192h-85.333c-40.064,0-72.811,20.843-94.677,60.245c-2.859,5.163-0.981,11.648,4.16,14.507
			c5.163,2.837,11.648,0.981,14.507-4.16c18.133-32.683,43.691-49.259,76.011-49.259h85.333c78.293,0,96,99.115,96,117.333
			C490.667,384,474.603,384,469.333,384c-37.077,0-53.781-45.76-53.931-46.208c-0.981-2.731-3.008-4.949-5.632-6.165
			C408.725,331.157,383.957,320,352,320c-31.957,0-56.725,11.157-57.771,11.627c-2.624,1.216-4.651,3.435-5.632,6.165
			C288.448,338.24,271.765,384,234.667,384H224c-5.888,0-10.667,4.779-10.667,10.667s4.779,10.667,10.667,10.667h10.667
			c44.245,0,66.027-41.515,72.213-55.787c7.339-2.731,24.661-8.213,45.12-8.213s37.781,5.483,45.12,8.213
			c6.187,14.272,27.968,55.787,72.213,55.787c28.309,0,42.667-25.131,42.667-74.667C512,293.653,484.181,192,394.667,192z"/>
	</g>
</g>
	<g>
	<g>
		<circle cx="394.667" cy="266.667" r="10.667"/>
	</g>
</g>
	<g>
	<g>
		<circle cx="416" cy="288" r="10.667"/>
	</g>
</g>
	<g>
	<g>
		<circle cx="416" cy="245.333" r="10.667"/>
	</g>
</g>
	<g>
	<g>
		<circle cx="437.333" cy="266.667" r="10.667"/>
	</g>
</g>
	<g>
	<g>
		<path d="M266.667,0c-29.333,0-58.475,4.288-86.592,12.693L38.016,55.317C15.275,62.144,0,82.667,0,106.411v301.355
			c0,22.123,13.909,42.197,34.603,49.92l123.029,46.165c14.464,5.397,29.611,8.149,45.035,8.149c17.643,0,32-14.357,32-32V196.715
			c0-4.608,2.923-8.683,7.296-10.133l34.837-11.605c13.077-4.373,21.867-16.576,21.867-30.357V32
			C298.667,14.357,284.309,0,266.667,0z M277.333,144.619c0,4.608-2.923,8.683-7.296,10.133L235.2,166.357
			c-13.077,4.373-21.867,16.576-21.867,30.357V480c0,5.867-4.8,10.667-10.688,10.667c-12.843,0-25.472-2.283-37.525-6.805
			L42.091,437.696c-12.416-4.608-20.757-16.661-20.757-29.931V106.411c0-14.229,9.173-26.56,22.805-30.656l142.059-42.603
			c26.133-7.851,53.205-11.819,80.469-11.819c5.888,0,10.667,4.779,10.667,10.667V144.619z"/>
	</g>
</g>
	<g>
	<g>
		<path d="M309.333,42.667H288c-5.888,0-10.667,4.779-10.667,10.667S282.112,64,288,64h21.333c17.643,0,32,14.357,32,32v106.667
			c0,5.888,4.779,10.667,10.667,10.667c5.888,0,10.667-4.779,10.667-10.667V96C362.667,66.603,338.752,42.667,309.333,42.667z"/>
	</g>
</g>
	<g>
	<g>
		<path d="M352,320c-5.888,0-10.667,4.779-10.667,10.667V416c0,17.643-14.357,32-32,32H224c-5.888,0-10.667,4.779-10.667,10.667
			s4.779,10.667,10.667,10.667h85.333c29.419,0,53.333-23.915,53.333-53.333v-85.333C362.667,324.779,357.888,320,352,320z"/>
	</g>
</g>
	<g>
	<g>
		<path d="M288,234.667c-5.888,0-10.667,4.779-10.667,10.667V288c0,5.888,4.779,10.667,10.667,10.667s10.667-4.779,10.667-10.667
			v-42.667C298.667,239.445,293.888,234.667,288,234.667z"/>
	</g>
</g>
	<g>
	<g>
		<path d="M309.333,256h-42.667c-5.888,0-10.667,4.779-10.667,10.667s4.779,10.667,10.667,10.667h42.667
			c5.888,0,10.667-4.779,10.667-10.667S315.221,256,309.333,256z"/>
	</g>
</g>
	<g>
</g>
	<g>
</g>
	<g>
</g>
	<g>
</g>
	<g>
</g>
	<g>
</g>
	<g>
</g>
	<g>
</g>
	<g>
</g>
	<g>
</g>
	<g>
</g>
	<g>
</g>
	<g>
</g>
	<g>
</g>
	<g>
</g>
</svg>
