<svg enable-background="new 0 0 300 300" viewBox="0 0 300 300" xmlns="http://www.w3.org/2000/svg">
	<g>
		<g>
			<g>
				<path
					d="m256.25 0h-212.5c-3.456 0-6.25 2.794-6.25 6.25v287.5c0 3.456 2.794 6.25 6.25 6.25h212.5c3.456 0 6.25-2.794 6.25-6.25v-287.5c0-3.456-2.794-6.25-6.25-6.25zm-6.25 287.5h-200v-62.5h200zm0-75h-200v-200h200z"/>
				<path
					d="m150 187.506c44.806 0 81.263-36.45 81.263-81.25 0-44.806-36.457-81.256-81.263-81.256-44.8 0-81.25 36.45-81.25 81.256 0 44.8 36.45 81.25 81.25 81.25zm0-150.006c37.912 0 68.763 30.85 68.763 68.756s-30.85 68.75-68.763 68.75c-16.567 0-31.786-5.894-43.671-15.695l23.14-23.692c2.412-2.469 2.369-6.425-.1-8.837-2.475-2.4-6.425-2.362-8.838.1l-23.084 23.628c-10.095-11.969-16.197-27.41-16.197-44.254 0-37.906 30.85-68.756 68.75-68.756z"/>
				<path
					d="m150 125c10.338 0 18.75-8.412 18.75-18.75s-8.412-18.75-18.75-18.75-18.75 8.412-18.75 18.75 8.412 18.75 18.75 18.75zm0-25c3.45 0 6.25 2.8 6.25 6.25s-2.8 6.25-6.25 6.25-6.25-2.8-6.25-6.25 2.8-6.25 6.25-6.25z"/>
				<path
					d="m212.5 275c10.338 0 18.756-8.419 18.756-18.756 0-10.338-8.419-18.75-18.756-18.75s-18.75 8.412-18.75 18.75c0 10.337 8.412 18.756 18.75 18.756zm0-25.006c3.45 0 6.256 2.8 6.256 6.25s-2.806 6.256-6.256 6.256-6.25-2.806-6.25-6.256 2.8-6.25 6.25-6.25z"/>
			</g>
		</g>
	</g>
	<g/>
	<g/>
	<g/>
	<g/>
	<g/>
	<g/>
	<g/>
	<g/>
	<g/>
	<g/>
	<g/>
	<g/>
	<g/>
	<g/>
	<g/>
</svg>