<svg id="light" enable-background="new 0 0 24 24" height="512" viewBox="0 0 24 24" width="512"
	 xmlns="http://www.w3.org/2000/svg">
	<g>
		<path
			d="m19 24h-14c-1.103 0-2-.897-2-2v-9h-2c-.561 0-1-.439-1-1 0-.265.108-.525.296-.713l11.354-11.144c.194-.19.506-.19.7 0l11.35 11.14c.192.192.3.452.3.717 0 .561-.439 1-1 1h-2v9c0 1.103-.897 2-2 2zm-7-22.799-11 10.796 2.5.003c.276 0 .5.224.5.5v9.5c0 .551.449 1 1 1h14c.551 0 1-.449 1-1v-9.5c0-.276.224-.5.5-.5h2.5c0-.002-.002-.005-.003-.006z"/>
	</g>
</svg>
