<svg id="light" enable-background="new 0 0 24 24" height="512" viewBox="0 0 24 24" width="512"
	 xmlns="http://www.w3.org/2000/svg">
	<g>
		<path
			d="m19.5 24h-4c-.276 0-.5-.224-.5-.5v-7c0-.276-.224-.5-.5-.5h-5c-.276 0-.5.224-.5.5v7c0 .276-.224.5-.5.5h-4c-.827 0-1.5-.673-1.5-1.5v-9.5h-2c-.551 0-1-.449-1-1 0-.265.108-.525.296-.713l11.354-11.144c.194-.19.505-.19.701 0l3.649 3.585v-2.228c0-.276.224-.5.5-.5h4c.276 0 .5.224.5.5v7.13l2.701 2.653c.191.192.299.452.299.717 0 .551-.449 1-1 1h-2v9.5c0 .827-.673 1.5-1.5 1.5zm-3.5-1h3.5c.276 0 .5-.224.5-.5v-10c0-.276.224-.5.5-.5h2.5l-2.851-2.804c-.095-.093-.149-.222-.149-.356v-6.84h-3v2.92c0 .202-.121.383-.307.461-.185.079-.399.037-.544-.104l-4.149-4.076-11 10.796 2.5.003c.276 0 .5.224.5.5v10c0 .276.224.5.5.5h3.5v-6.5c0-.827.673-1.5 1.5-1.5h5c.827 0 1.5.673 1.5 1.5z"/>
	</g>
</svg>