<?xml version="1.0" encoding="iso-8859-1"?>
<!-- Generator: Adobe Illustrator 19.0.0, SVG Export Plug-In . SVG Version: 6.00 Build 0)  -->
<svg version="1.1" id="Layer_1" xmlns="http://www.w3.org/2000/svg" x="0px" y="0px"
	 viewBox="0 0 512 512" style="enable-background:new 0 0 512 512;" xml:space="preserve">
<g>
	<g>
		<g>
			<path d="M501.333,320c-5.888,0-10.667,4.779-10.667,10.667c0,41.173-33.493,74.667-74.667,74.667H59.243
				c-3.819,0-7.339,2.048-9.237,5.355c-1.899,3.285-1.899,7.381,0.021,10.667C59.605,437.781,77.227,448,96,448h362.667
				C488.064,448,512,424.064,512,394.667v-64C512,324.779,507.221,320,501.333,320z"/>
			<path d="M416,384c29.397,0,53.333-23.936,53.333-53.333V117.333C469.333,87.936,445.397,64,416,64H53.333
				C23.936,64,0,87.936,0,117.333v213.333C0,360.064,23.936,384,53.333,384H416z M309.333,149.333H416
				c5.888,0,10.667,4.779,10.667,10.667s-4.779,10.667-10.667,10.667H309.333c-5.888,0-10.667-4.779-10.667-10.667
				S303.445,149.333,309.333,149.333z M309.333,213.333H416c5.888,0,10.667,4.779,10.667,10.667s-4.779,10.667-10.667,10.667
				H309.333c-5.888,0-10.667-4.779-10.667-10.667S303.445,213.333,309.333,213.333z M309.333,277.333H416
				c5.888,0,10.667,4.779,10.667,10.667s-4.779,10.667-10.667,10.667H309.333c-5.888,0-10.667-4.779-10.667-10.667
				S303.445,277.333,309.333,277.333z M160,106.667c64.704,0,117.333,52.629,117.333,117.333c0,32.333-13.135,61.639-34.353,82.864
				c-0.255,0.274-0.55,0.487-0.805,0.741c0.043-0.043,0.107-0.085,0.149-0.107c-21.205,20.885-50.261,33.835-82.325,33.835
				c-64.704,0-117.333-52.629-117.333-117.333S95.296,106.667,160,106.667z"/>
			<path d="M160,320c32.107,0,60.395-15.979,77.824-40.235c-9.877-16.853-24.789-29.931-42.411-37.525
				c10.923-9.771,17.92-23.808,17.92-39.573c0-29.397-23.936-53.333-53.333-53.333s-53.333,23.936-53.333,53.333
				c0,15.765,6.997,29.803,17.92,39.573c-17.621,7.595-32.533,20.672-42.411,37.525C99.605,304.021,127.893,320,160,320z"/>
		</g>
	</g>
</g>
	<g>
</g>
	<g>
</g>
	<g>
</g>
	<g>
</g>
	<g>
</g>
	<g>
</g>
	<g>
</g>
	<g>
</g>
	<g>
</g>
	<g>
</g>
	<g>
</g>
	<g>
</g>
	<g>
</g>
	<g>
</g>
	<g>
</g>
</svg>
