<svg id="Layer_1" enable-background="new 0 0 300 300" viewBox="0 0 300 300"
	 xmlns="http://www.w3.org/2000/svg">
	<g>
		<g>
			<g>
				<path
					d="m293.75 123.806h-81.948c-3.074-13.886-16.031-25-30.552-25h-56.25c-14.518 0-27.483 11.115-30.559 25h-88.191c-3.456 0-6.25 2.794-6.25 6.25v125c0 3.456 2.794 6.25 6.25 6.25h287.5c3.456 0 6.25-2.8 6.25-6.25v-125c0-3.456-2.794-6.25-6.25-6.25zm-168.75-12.5h56.25c8.056 0 14.731 5.856 17.45 12.5h-91.15c2.719-6.644 9.394-12.5 17.45-12.5zm162.5 137.5h-275v-112.5h87.499.001 106.25c.044.006.1.006.125 0h.001 81.124z"/>
				<path
					d="m37.5 148.806h-12.5c-3.456 0-6.25 2.794-6.25 6.25s2.794 6.25 6.25 6.25h12.5c3.456 0 6.25-2.794 6.25-6.25s-2.794-6.25-6.25-6.25z"/>
				<path
					d="m75 148.806h-12.5c-3.456 0-6.25 2.794-6.25 6.25s2.794 6.25 6.25 6.25h12.5c3.456 0 6.25-2.794 6.25-6.25s-2.794-6.25-6.25-6.25z"/>
				<path
					d="m75 186.306h-12.5c-3.456 0-6.25 2.794-6.25 6.25s2.794 6.25 6.25 6.25h12.5c3.456 0 6.25-2.794 6.25-6.25s-2.794-6.25-6.25-6.25z"/>
				<path
					d="m100 161.306h12.5c3.456 0 6.25-2.794 6.25-6.25s-2.794-6.25-6.25-6.25h-12.5c-3.456 0-6.25 2.794-6.25 6.25 0 3.457 2.794 6.25 6.25 6.25z"/>
				<path
					d="m118.75 192.556c0-3.456-2.794-6.25-6.25-6.25h-12.5c-3.456 0-6.25 2.794-6.25 6.25s2.794 6.25 6.25 6.25h12.5c3.456 0 6.25-2.793 6.25-6.25z"/>
				<path
					d="m137.5 198.806h12.5c3.456 0 6.25-2.794 6.25-6.25s-2.794-6.25-6.25-6.25h-12.5c-3.456 0-6.25 2.794-6.25 6.25 0 3.457 2.794 6.25 6.25 6.25z"/>
				<path
					d="m175 198.806h12.5c3.456 0 6.25-2.794 6.25-6.25s-2.794-6.25-6.25-6.25h-12.5c-3.456 0-6.25 2.794-6.25 6.25 0 3.457 2.794 6.25 6.25 6.25z"/>
				<path
					d="m137.5 161.306h12.5c3.456 0 6.25-2.794 6.25-6.25s-2.794-6.25-6.25-6.25h-12.5c-3.456 0-6.25 2.794-6.25 6.25 0 3.457 2.794 6.25 6.25 6.25z"/>
				<path
					d="m37.5 186.306h-12.5c-3.456 0-6.25 2.794-6.25 6.25s2.794 6.25 6.25 6.25h12.5c3.456 0 6.25-2.794 6.25-6.25s-2.794-6.25-6.25-6.25z"/>
				<path
					d="m37.5 223.806h-12.5c-3.456 0-6.25 2.794-6.25 6.25s2.794 6.25 6.25 6.25h12.5c3.456 0 6.25-2.794 6.25-6.25s-2.794-6.25-6.25-6.25z"/>
				<path
					d="m262.5 161.306h12.5c3.456 0 6.25-2.794 6.25-6.25s-2.794-6.25-6.25-6.25h-12.5c-3.456 0-6.25 2.794-6.25 6.25 0 3.457 2.794 6.25 6.25 6.25z"/>
				<path
					d="m262.5 198.806h12.5c3.456 0 6.25-2.794 6.25-6.25s-2.794-6.25-6.25-6.25h-12.5c-3.456 0-6.25 2.794-6.25 6.25 0 3.457 2.794 6.25 6.25 6.25z"/>
				<path
					d="m225 161.306h12.5c3.456 0 6.25-2.794 6.25-6.25s-2.794-6.25-6.25-6.25h-12.5c-3.456 0-6.25 2.794-6.25 6.25 0 3.457 2.794 6.25 6.25 6.25z"/>
				<path
					d="m225 198.806h12.5c3.456 0 6.25-2.794 6.25-6.25s-2.794-6.25-6.25-6.25h-12.5c-3.456 0-6.25 2.794-6.25 6.25 0 3.457 2.794 6.25 6.25 6.25z"/>
				<path
					d="m175 161.306h12.5c3.456 0 6.25-2.794 6.25-6.25s-2.794-6.25-6.25-6.25h-12.5c-3.456 0-6.25 2.794-6.25 6.25 0 3.457 2.794 6.25 6.25 6.25z"/>
				<path
					d="m262.5 236.306h12.5c3.456 0 6.25-2.794 6.25-6.25s-2.794-6.25-6.25-6.25h-12.5c-3.456 0-6.25 2.794-6.25 6.25 0 3.457 2.794 6.25 6.25 6.25z"/>
				<path
					d="m75 223.806h-12.5c-3.456 0-6.25 2.794-6.25 6.25s2.794 6.25 6.25 6.25h12.5c3.456 0 6.25-2.794 6.25-6.25s-2.794-6.25-6.25-6.25z"/>
				<path
					d="m112.5 223.806c-3.456 0-6.25 2.794-6.25 6.25s2.794 6.25 6.25 6.25h100c3.456 0 6.25-2.794 6.25-6.25s-2.794-6.25-6.25-6.25z"/>
				<path
					d="m121.763 76.525c-2.45 2.444-2.45 6.387 0 8.831 2.444 2.45 6.388 2.45 8.837 0 5.9-5.906 13.75-9.163 22.1-9.163s16.188 3.263 22.094 9.163c1.219 1.219 2.819 1.831 4.419 1.831s3.2-.606 4.419-1.831c2.45-2.444 2.45-6.388 0-8.831-8.262-8.275-19.25-12.831-30.931-12.831-11.688 0-22.682 4.562-30.938 12.831z"/>
				<path
					d="m112.919 67.688c10.625-10.631 24.756-16.494 39.775-16.494 15.025 0 29.15 5.863 39.775 16.494 1.219 1.213 2.819 1.831 4.419 1.831s3.2-.612 4.419-1.831c2.444-2.444 2.444-6.394 0-8.838-12.981-12.994-30.244-20.156-48.613-20.156-18.362 0-35.631 7.163-48.612 20.156-2.444 2.444-2.444 6.394 0 8.838 2.449 2.443 6.393 2.443 8.837 0z"/>
			</g>
		</g>
	</g>
	<g/>
	<g/>
	<g/>
	<g/>
	<g/>
	<g/>
	<g/>
	<g/>
	<g/>
	<g/>
	<g/>
	<g/>
	<g/>
	<g/>
	<g/>
</svg>