<svg id="bold" enable-background="new 0 0 24 24" height="512" viewBox="0 0 24 24" width="512" xmlns="http://www.w3.org/2000/svg"><path d="m19 11c-2.757 0-5 2.271-5 5.062 0 3.853 4.328 7.6 4.513 7.757.279.24.695.24.975 0 .184-.157 4.512-3.904 4.512-7.757 0-2.791-2.243-5.062-5-5.062zm0 7c-1.103 0-2-.897-2-2s.897-2 2-2 2 .897 2 2-.897 2-2 2z"/><path d="m10 0c-5.51 0-10 4.49-10 10s4.49 10 10 10c.98 0 1.93-.14 2.82-.41-1.531-3.438-.78-6.532 1.29-8.57-.036 0-.514-.205-.55-.22-3.917-1.491-7.579 3.225-4.29 7.15-2.59-.24-4.83-1.71-6.11-3.83 1.384-.327 2.392-1.56 2.41-3.02.022-.923.645-1.555 1.42-1.73 3.454-.74 3.78-5.034 2.45-7.34.921-.051 1.698-.026 2.8.3-.277 2.794 1.233 6.178 4.57 5.86l.95-.11c.08.33.13.66.16 1.01.629-.108 1.427-.129 2.04-.01-.47-5.08-4.76-9.08-9.96-9.08z"/></svg>