<?xml version="1.0" encoding="iso-8859-1"?>
<!-- Generator: Adobe Illustrator 19.0.0, SVG Export Plug-In . SVG Version: 6.00 Build 0)  -->
<svg version="1.1" xmlns="http://www.w3.org/2000/svg" x="0px" y="0px"
	 viewBox="0 0 512 512" style="enable-background:new 0 0 512 512;" xml:space="preserve">
<g>
	<g>
		<g>
			<path d="M373.333,277.333c-5.888,0-10.667,4.779-10.667,10.667v106.667c0,17.643-14.357,32-32,32h-96V98.005
				c0-18.453-10.965-35.072-27.925-42.325l-80.128-34.347h204.053c17.643,0,32,14.357,32,32V160c0,5.888,4.779,10.667,10.667,10.667
				c5.888,0,10.667-4.779,10.667-10.667V53.333C384,23.936,360.064,0,330.667,0h-256c-0.853,0-1.621,0.299-2.432,0.491
				C70.635,0.32,69.035,0,67.392,0C42.005,0,21.333,20.672,21.333,46.059v367.936c0,18.453,10.965,35.072,27.925,42.325
				l121.173,51.947c5.76,2.475,11.883,3.733,18.176,3.733c25.387,0,46.059-20.672,46.059-46.059V448h96
				C360.064,448,384,424.064,384,394.667V288C384,282.112,379.221,277.333,373.333,277.333z M213.333,465.941
				c0,13.632-11.093,24.725-24.725,24.725c-3.371,0-6.656-0.661-9.749-1.984L57.664,436.736
				c-9.109-3.904-14.997-12.843-14.997-22.741V46.059c0-13.632,11.093-24.725,24.725-24.725c3.371,0,6.656,0.661,9.749,2.005
				l121.195,51.925c9.109,3.904,14.997,12.843,14.997,22.741V465.941z"/>
			<path d="M181.333,234.667c-5.888,0-10.667,4.779-10.667,10.667V288c0,5.888,4.779,10.667,10.667,10.667S192,293.888,192,288
				v-42.667C192,239.445,187.221,234.667,181.333,234.667z"/>
			<path d="M490.091,221.184c-0.107-0.384-0.085-0.811-0.235-1.195c-0.555-1.387-1.387-2.603-2.453-3.627l-63.872-63.872
				c-4.16-4.16-10.923-4.16-15.083,0c-4.16,4.16-4.16,10.923,0,15.083l45.76,45.76H266.667c-5.888,0-10.667,4.779-10.667,10.667
				s4.779,10.667,10.667,10.667h187.584l-45.803,45.803c-4.16,4.16-4.16,10.923,0,15.083c2.091,2.069,4.821,3.115,7.552,3.115
				c2.731,0,5.461-1.045,7.531-3.093l64-64c0.299-0.299,0.405-0.683,0.661-0.981c0.619-0.768,1.259-1.557,1.643-2.496
				c0.384-0.917,0.469-1.899,0.576-2.859c0.064-0.427,0.256-0.811,0.256-1.237C490.667,222.997,490.347,222.101,490.091,221.184z"/>
		</g>
	</g>
</g>
	<g>
</g>
	<g>
</g>
	<g>
</g>
	<g>
</g>
	<g>
</g>
	<g>
</g>
	<g>
</g>
	<g>
</g>
	<g>
</g>
	<g>
</g>
	<g>
</g>
	<g>
</g>
	<g>
</g>
	<g>
</g>
	<g>
</g>
</svg>
