<?xml version="1.0" encoding="iso-8859-1"?>
<!-- Generator: Adobe Illustrator 19.0.0, SVG Export Plug-In . SVG Version: 6.00 Build 0)  -->
<svg version="1.1" id="Layer_1" xmlns="http://www.w3.org/2000/svg" x="0px" y="0px"
	 viewBox="0 0 512 512" style="enable-background:new 0 0 512 512;" xml:space="preserve">
<g>
	<g>
		<g>
			<path d="M256,181.333c0,5.888,4.779,10.667,10.667,10.667h106.667c5.888,0,10.667-4.779,10.667-10.667v-128
				C384,23.936,360.064,0,330.667,0H182.976c-5.056,0-9.429,3.563-10.453,8.512c-1.024,4.949,1.6,9.963,6.251,11.947l36.352,15.573
				C239.957,46.699,256,71.019,256,98.005V181.333z"/>
			<path d="M206.741,55.659L85.568,3.712C79.808,1.259,73.685,0,67.392,0C42.005,0,21.333,20.672,21.333,46.059v367.936
				c0,18.453,10.965,35.072,27.925,42.347l121.173,51.947c5.76,2.453,11.883,3.712,18.176,3.712
				c25.387,0,46.059-20.672,46.059-46.059V98.005C234.667,79.552,223.701,62.933,206.741,55.659z M192,288
				c0,5.888-4.779,10.667-10.667,10.667s-10.667-4.779-10.667-10.667v-42.667c0-5.888,4.779-10.667,10.667-10.667
				S192,239.445,192,245.333V288z"/>
			<path d="M373.333,256H266.667c-5.888,0-10.667,4.779-10.667,10.667v170.667c0,5.888,4.779,10.667,10.667,10.667h64
				C360.064,448,384,424.064,384,394.667v-128C384,260.779,379.221,256,373.333,256z"/>
			<path d="M490.091,221.184c-0.107-0.384-0.085-0.811-0.235-1.195c-0.555-1.387-1.387-2.603-2.453-3.627l-63.872-63.872
				c-4.16-4.16-10.923-4.16-15.083,0c-4.16,4.16-4.16,10.923,0,15.083l45.76,45.76H266.667c-5.888,0-10.667,4.779-10.667,10.667
				s4.779,10.667,10.667,10.667h187.584l-45.803,45.803c-4.16,4.16-4.16,10.923,0,15.083c2.091,2.069,4.821,3.115,7.552,3.115
				c2.731,0,5.461-1.045,7.531-3.093l64-64c0.299-0.299,0.405-0.683,0.661-0.981c0.619-0.768,1.259-1.557,1.643-2.496
				c0.384-0.917,0.469-1.899,0.576-2.859c0.064-0.427,0.256-0.811,0.256-1.237C490.667,222.997,490.347,222.101,490.091,221.184z"/>
		</g>
	</g>
</g>
	<g>
</g>
	<g>
</g>
	<g>
</g>
	<g>
</g>
	<g>
</g>
	<g>
</g>
	<g>
</g>
	<g>
</g>
	<g>
</g>
	<g>
</g>
	<g>
</g>
	<g>
</g>
	<g>
</g>
	<g>
</g>
	<g>
</g>
</svg>
