<svg id="_x31__px" height="512" viewBox="0 0 24 24" width="512" xmlns="http://www.w3.org/2000/svg">
	<path
		d="m3 24c-1.654 0-3-1.346-3-3 0-.802.312-1.555.879-2.121l10.46-10.463c.413-.414.719-.929.883-1.489l1.502-5.122c.362-1.234 1.563-1.994 2.797-1.765 4.159.772 6.661 3.202 7.437 7.223.232 1.201-.496 2.4-1.692 2.79l-5.248 1.709c-.522.17-1.003.465-1.392.854l-10.505 10.505c-.566.567-1.319.879-2.121.879zm13.094-23c-.629 0-1.222.44-1.411 1.085l-1.502 5.122c-.211.721-.604 1.383-1.136 1.915l-10.459 10.464c-.378.377-.586.88-.586 1.414 0 1.103.897 2 2 2 .534 0 1.037-.208 1.414-.586l10.504-10.507c.499-.499 1.117-.878 1.789-1.098l5.248-1.709c.718-.233 1.157-.942 1.021-1.649-.7-3.627-2.871-5.73-6.637-6.429-.082-.014-.164-.022-.245-.022z"/>
	<path d="m13 8.025h1v4.95h-1z" transform="matrix(.707 -.707 .707 .707 -3.471 12.621)"/>
	<path d="m10.5 10.525h1v4.95h-1z" transform="matrix(.707 -.707 .707 .707 -5.971 11.586)"/>
	<path
		d="m16.5 6c-.103 0-.206-.031-.295-.097-.223-.164-.271-.477-.107-.699l2.75-3.75c.164-.222.476-.271.699-.107s.271.477.107.699l-2.75 3.75c-.099.133-.251.204-.404.204z"/>
	<path
		d="m18.5 8c-.154 0-.306-.071-.404-.204-.163-.223-.115-.536.107-.699l3.75-2.75c.223-.165.535-.115.699.107.163.223.115.536-.107.699l-3.75 2.75c-.088.066-.192.097-.295.097z"/>
</svg>