<svg height="514pt" viewBox="0 -134 514.75343 514" width="514pt" xmlns="http://www.w3.org/2000/svg"><path d="m76.042969 171.042969c-8.832031 0-16-7.167969-16-16v-138.667969c0-8.832031 7.167969-16 16-16s16 7.167969 16 16v138.667969c0 8.832031-7.167969 16-16 16zm0 0"/><path d="m257.375 171.042969c-8.832031 0-16-7.167969-16-16v-138.667969c0-8.832031 7.167969-16 16-16s16 7.167969 16 16v138.667969c0 8.832031-7.167969 16-16 16zm0 0"/><path d="m197.367188 136.375c-5.546876 0-10.921876-2.878906-13.867188-8-4.417969-7.636719-1.792969-17.425781 5.84375-21.84375l120.085938-69.332031c7.660156-4.4375 17.449218-1.773438 21.84375 5.84375 4.417968 7.636719 1.792968 17.429687-5.84375 21.847656l-120.085938 69.332031c-2.539062 1.472656-5.289062 2.152344-7.976562 2.152344zm0 0"/><path d="m317.386719 136.375c-2.707031 0-5.460938-.679688-7.976563-2.152344l-120.085937-69.332031c-7.636719-4.417969-10.261719-14.210937-5.847657-21.847656 4.417969-7.617188 14.167969-10.28125 21.867188-5.84375l120.085938 69.332031c7.636718 4.417969 10.261718 14.207031 5.84375 21.84375-2.964844 5.121094-8.339844 8-13.886719 8zm0 0"/><path d="m16.03125 136.375c-5.546875 0-10.921875-2.878906-13.863281-8-4.417969-7.636719-1.792969-17.425781 5.84375-21.84375l120.085937-69.332031c7.679688-4.4375 17.429688-1.773438 21.84375 5.84375 4.417969 7.636719 1.792969 17.429687-5.84375 21.847656l-120.085937 69.332031c-2.539063 1.472656-5.289063 2.152344-7.980469 2.152344zm0 0"/><path d="m136.054688 136.375c-2.710938 0-5.460938-.679688-7.980469-2.152344l-120.085938-69.332031c-7.636719-4.417969-10.257812-14.210937-5.84375-21.847656 4.394531-7.617188 14.1875-10.28125 21.84375-5.84375l120.085938 69.332031c7.660156 4.417969 10.285156 14.207031 5.867187 21.84375-2.964844 5.121094-8.339844 8-13.886718 8zm0 0"/><path d="m438.710938 171.042969c-8.832032 0-16-7.167969-16-16v-138.667969c0-8.832031 7.167968-16 16-16 8.832031 0 16 7.167969 16 16v138.667969c0 8.832031-7.167969 16-16 16zm0 0"/><path d="m378.699219 136.375c-5.546875 0-10.921875-2.878906-13.867188-8-4.414062-7.636719-1.792969-17.425781 5.847657-21.84375l120.082031-69.332031c7.660156-4.4375 17.453125-1.773438 21.847656 5.84375 4.414063 7.636719 1.792969 17.429687-5.847656 21.847656l-120.082031 69.332031c-2.539063 1.472656-5.292969 2.152344-7.980469 2.152344zm0 0"/><path d="m498.722656 136.375c-2.710937 0-5.464844-.679688-7.980468-2.152344l-120.085938-69.332031c-7.636719-4.417969-10.261719-14.210937-5.84375-21.847656 4.394531-7.617188 14.164062-10.28125 21.84375-5.84375l120.085938 69.332031c7.636718 4.417969 10.261718 14.207031 5.84375 21.84375-2.941407 5.121094-8.320313 8-13.863282 8zm0 0"/><path d="m134.710938 245.710938h-117.335938c-8.832031 0-16-7.167969-16-16 0-8.832032 7.167969-16 16-16h117.335938c8.832031 0 16 7.167968 16 16 0 8.832031-7.167969 16-16 16zm0 0"/><path d="m316.042969 245.710938h-117.332031c-8.832032 0-16-7.167969-16-16 0-8.832032 7.167968-16 16-16h117.332031c8.832031 0 16 7.167968 16 16 0 8.832031-7.167969 16-16 16zm0 0"/><path d="m497.375 245.710938h-117.332031c-8.832031 0-16-7.167969-16-16 0-8.832032 7.167969-16 16-16h117.332031c8.832031 0 16 7.167968 16 16 0 8.832031-7.167969 16-16 16zm0 0"/></svg>