<svg viewBox="0 0 24 24" xmlns="http://www.w3.org/2000/svg">
	<g>
		<path
			d="m10 8.5c0-.27614-.22386-.5-.5-.5s-.5.22386-.5.5v7c0 .2761.22386.5.5.5s.5-.2239.5-.5z"/>
		<path
			d="m14.5 8c.2761 0 .5.22386.5.5v7c0 .2761-.2239.5-.5.5s-.5-.2239-.5-.5v-7c0-.27614.2239-.5.5-.5z"/>
		<path clip-rule="evenodd"
			  d="m12 1.5c-5.79899 0-10.5 4.70101-10.5 10.5 0 5.799 4.70101 10.5 10.5 10.5 5.799 0 10.5-4.701 10.5-10.5 0-5.79899-4.701-10.5-10.5-10.5zm-9.5 10.5c0-5.24671 4.25329-9.5 9.5-9.5 5.2467 0 9.5 4.25329 9.5 9.5 0 5.2467-4.2533 9.5-9.5 9.5-5.24671 0-9.5-4.2533-9.5-9.5z"
			  fill-rule="evenodd"/>
	</g>
</svg>