<svg id="light" enable-background="new 0 0 24 24" height="512" viewBox="0 0 24 24" width="512" xmlns="http://www.w3.org/2000/svg"><g><path d="m12 24c-6.617 0-12-5.383-12-12s5.383-12 12-12 12 5.383 12 12-5.383 12-12 12zm0-23c-6.065 0-11 4.935-11 11s4.935 11 11 11 11-4.935 11-11-4.935-11-11-11z"/></g><g><path d="m12 19c-.827 0-1.5-.673-1.5-1.5s.673-1.5 1.5-1.5 1.5.673 1.5 1.5-.673 1.5-1.5 1.5zm0-2c-.275 0-.5.224-.5.5s.225.5.5.5.5-.224.5-.5-.225-.5-.5-.5z"/></g><g><path d="m12 14.5c-.276 0-.5-.224-.5-.5v-1.23c0-.877.562-1.644 1.4-1.908 1.256-.394 2.1-1.544 2.1-2.862 0-1.654-1.346-3-3-3s-3 1.346-3 3c0 .276-.224.5-.5.5s-.5-.224-.5-.5c0-2.206 1.794-4 4-4s4 1.794 4 4c0 1.757-1.125 3.291-2.8 3.816-.419.132-.7.515-.7.954v1.23c0 .276-.224.5-.5.5z"/></g></svg>