<svg enable-background="new 0 0 299.92 299.92" viewBox="0 0 299.92 299.92"
	 xmlns="http://www.w3.org/2000/svg">
	<g>
		<g>
			<g>
				<path
					d="m293.4 65.2h-286.88c-3.606 0-6.52 2.914-6.52 6.52v117.36c0 3.606 2.914 6.52 6.52 6.52h6.52v32.6c0 3.606 2.914 6.52 6.52 6.52h260.8c3.606 0 6.52-2.914 6.52-6.52v-32.6h6.52c3.606 0 6.52-2.914 6.52-6.52v-117.36c0-3.606-2.914-6.52-6.52-6.52zm-19.56 156.48h-19.56-26.08-26.08-26.08-26.08-26.08-26.08-26.08-26.08-19.56v-26.08h19.56 26.08 26.08 26.08 26.08 26.08 26.08 26.08 26.08 19.56zm13.04-39.12h-6.52-260.8-6.52v-104.32h273.84z"/>
				<path
					d="m32.6 169.52h39.12c3.606 0 6.52-2.914 6.52-6.52v-65.2c0-3.606-2.914-6.52-6.52-6.52h-39.12c-3.606 0-6.52 2.914-6.52 6.52v65.2c0 3.606 2.914 6.52 6.52 6.52zm6.52-65.2h26.08v52.16h-26.08z"/>
				<path
					d="m97.8 169.52h39.12c3.606 0 6.52-2.914 6.52-6.52v-65.2c0-3.606-2.914-6.52-6.52-6.52h-39.12c-3.606 0-6.52 2.914-6.52 6.52v65.2c0 3.606 2.914 6.52 6.52 6.52zm6.52-65.2h26.08v52.16h-26.08z"/>
				<path
					d="m163 169.52h39.12c3.606 0 6.52-2.914 6.52-6.52v-65.2c0-3.606-2.914-6.52-6.52-6.52h-39.12c-3.606 0-6.52 2.914-6.52 6.52v65.2c0 3.606 2.914 6.52 6.52 6.52zm6.52-65.2h26.08v52.16h-26.08z"/>
				<path
					d="m228.2 169.52h39.12c3.606 0 6.52-2.914 6.52-6.52v-65.2c0-3.606-2.914-6.52-6.52-6.52h-39.12c-3.606 0-6.52 2.914-6.52 6.52v65.2c0 3.606 2.914 6.52 6.52 6.52zm6.52-65.2h26.08v52.16h-26.08z"/>
				<path
					d="m52.16 215.16v-13.04c0-3.606-2.914-6.52-6.52-6.52s-6.52 2.914-6.52 6.52v13.04c0 3.606 2.914 6.52 6.52 6.52s6.52-2.914 6.52-6.52z"/>
				<path
					d="m78.24 215.16v-13.04c0-3.606-2.914-6.52-6.52-6.52s-6.52 2.914-6.52 6.52v13.04c0 3.606 2.914 6.52 6.52 6.52s6.52-2.914 6.52-6.52z"/>
				<path
					d="m104.32 215.16v-13.04c0-3.606-2.914-6.52-6.52-6.52s-6.52 2.914-6.52 6.52v13.04c0 3.606 2.914 6.52 6.52 6.52s6.52-2.914 6.52-6.52z"/>
				<path
					d="m130.4 215.16v-13.04c0-3.606-2.914-6.52-6.52-6.52s-6.52 2.914-6.52 6.52v13.04c0 3.606 2.914 6.52 6.52 6.52s6.52-2.914 6.52-6.52z"/>
				<path
					d="m156.48 215.16v-13.04c0-3.606-2.914-6.52-6.52-6.52s-6.52 2.914-6.52 6.52v13.04c0 3.606 2.914 6.52 6.52 6.52s6.52-2.914 6.52-6.52z"/>
				<path
					d="m182.56 215.16v-13.04c0-3.606-2.914-6.52-6.52-6.52s-6.52 2.914-6.52 6.52v13.04c0 3.606 2.914 6.52 6.52 6.52s6.52-2.914 6.52-6.52z"/>
				<path
					d="m208.64 215.16v-13.04c0-3.606-2.914-6.52-6.52-6.52s-6.52 2.914-6.52 6.52v13.04c0 3.606 2.914 6.52 6.52 6.52s6.52-2.914 6.52-6.52z"/>
				<path
					d="m234.72 215.16v-13.04c0-3.606-2.914-6.52-6.52-6.52s-6.52 2.914-6.52 6.52v13.04c0 3.606 2.914 6.52 6.52 6.52s6.52-2.914 6.52-6.52z"/>
				<path
					d="m260.8 215.16v-13.04c0-3.606-2.914-6.52-6.52-6.52s-6.52 2.914-6.52 6.52v13.04c0 3.606 2.914 6.52 6.52 6.52s6.52-2.914 6.52-6.52z"/>
			</g>
		</g>
	</g>
	<g/>
	<g/>
	<g/>
	<g/>
	<g/>
	<g/>
	<g/>
	<g/>
	<g/>
	<g/>
	<g/>
	<g/>
	<g/>
	<g/>
	<g/>
</svg>