<svg height="512pt" viewBox="0 0 512.016 512" width="512pt" xmlns="http://www.w3.org/2000/svg"><path d="m202.667969 405.339844c-111.746094 0-202.667969-90.921875-202.667969-202.664063 0-111.746093 90.921875-202.6679685 202.667969-202.6679685 111.742187 0 202.664062 90.9218755 202.664062 202.6679685 0 111.742188-90.921875 202.664063-202.664062 202.664063zm0-373.332032c-94.101563 0-170.667969 76.566407-170.667969 170.667969 0 94.101563 76.566406 170.664063 170.667969 170.664063 94.101562 0 170.664062-76.5625 170.664062-170.664063 0-94.101562-76.5625-170.667969-170.664062-170.667969zm0 0"/><path d="m496 512.007812c-4.097656 0-8.191406-1.558593-11.308594-4.691406l-161.277344-161.28125c-6.25-6.25-6.25-16.382812 0-22.636718 6.25-6.25 16.382813-6.25 22.632813 0l161.28125 161.28125c6.25 6.25 6.25 16.382812 0 22.636718-3.136719 3.132813-7.230469 4.691406-11.328125 4.691406zm0 0"/></svg>