<svg id="_x31_px" enable-background="new 0 0 24 24" height="512" viewBox="0 0 24 24" width="512" xmlns="http://www.w3.org/2000/svg"><path d="m12 18c-3.309 0-6-2.691-6-6s2.691-6 6-6 6 2.691 6 6-2.691 6-6 6zm0-11c-2.757 0-5 2.243-5 5s2.243 5 5 5 5-2.243 5-5-2.243-5-5-5z"/><path d="m14.5 12.5h-5c-.276 0-.5-.224-.5-.5s.224-.5.5-.5h5c.276 0 .5.224.5.5s-.224.5-.5.5z"/><path d="m12 15c-.276 0-.5-.224-.5-.5v-5c0-.276.224-.5.5-.5s.5.224.5.5v5c0 .276-.224.5-.5.5z"/><path d="m.77 15c-.229 0-.435-.158-.487-.39-.188-.832-.283-1.71-.283-2.61 0-6.617 5.383-12 12-12 3.754 0 7.22 1.711 9.507 4.696.168.219.126.533-.093.701s-.533.126-.701-.093c-2.096-2.735-5.272-4.304-8.713-4.304-6.065 0-11 4.935-11 11 0 .827.087 1.631.258 2.39.061.27-.108.537-.378.598-.037.008-.074.012-.11.012z"/><path d="m12 24c-3.754 0-7.22-1.711-9.507-4.696-.168-.219-.126-.533.093-.701.221-.167.534-.125.701.093 2.096 2.735 5.272 4.304 8.713 4.304 6.065 0 11-4.935 11-11 0-.838-.089-1.641-.266-2.384-.064-.269.102-.539.371-.602.271-.065.539.102.602.371.194.819.293 1.699.293 2.615 0 6.617-5.383 12-12 12z"/><path d="m2.55 24c-.274 0-.497-.221-.5-.495l-.05-5c-.001-.133.051-.262.145-.356.094-.096.222-.149.355-.149h5c.276 0 .5.224.5.5s-.224.5-.5.5h-4.495l.045 4.495c.003.276-.218.502-.495.505-.001 0-.003 0-.005 0z"/><path d="m21.5 6h-5c-.276 0-.5-.224-.5-.5s.224-.5.5-.5h4.5v-4.5c0-.276.224-.5.5-.5s.5.224.5.5v5c0 .276-.224.5-.5.5z"/></svg>