<?xml version="1.0" encoding="iso-8859-1"?>
<!-- Generator: Adobe Illustrator 19.0.0, SVG Export Plug-In . SVG Version: 6.00 Build 0)  -->
<svg version="1.1" xmlns="http://www.w3.org/2000/svg" x="0px" y="0px"
	 viewBox="0 0 512 512" style="enable-background:new 0 0 512 512;" xml:space="preserve">
<g>
	<g>
		<g>
			<path d="M309.333,245.333H416c5.888,0,10.667-4.779,10.667-10.667S421.888,224,416,224H309.333
				c-5.888,0-10.667,4.779-10.667,10.667S303.445,245.333,309.333,245.333z"/>
			<path d="M309.333,181.333H416c5.888,0,10.667-4.779,10.667-10.667S421.888,160,416,160H309.333
				c-5.888,0-10.667,4.779-10.667,10.667S303.445,181.333,309.333,181.333z"/>
			<path d="M468.352,118.315C463.765,93.525,442.091,74.667,416,74.667H53.333C23.936,74.667,0,98.603,0,128v213.333
				c0,26.091,18.859,47.765,43.648,52.352c4.587,24.789,26.261,43.648,52.352,43.648h362.667C488.064,437.333,512,413.397,512,384
				V170.667C512,144.576,493.141,122.901,468.352,118.315z M53.333,373.333c-17.643,0-32-14.357-32-32V128c0-17.643,14.357-32,32-32
				H416c17.643,0,32,14.357,32,32v213.333c0,17.643-14.357,32-32,32H53.333z M490.667,384c0,17.643-14.357,32-32,32H96
				c-13.888,0-25.621-8.939-30.037-21.333H416c29.397,0,53.333-23.936,53.333-53.333V140.629
				c12.395,4.416,21.333,16.149,21.333,30.037V384z"/>
			<path d="M160,117.333c-64.704,0-117.333,52.629-117.333,117.333c0,32.32,13.141,61.611,34.347,82.859
				c0.043,0.043,0.043,0.128,0.085,0.171c0.256,0.256,0.555,0.427,0.811,0.661c5.099,4.992,10.603,9.557,16.533,13.568
				c0.683,0.469,1.429,0.832,2.133,1.301c5.675,3.669,11.627,6.912,17.92,9.579c0.747,0.32,1.515,0.533,2.261,0.832
				c6.379,2.539,12.992,4.608,19.861,6.016c0.427,0.085,0.853,0.107,1.259,0.192C145.045,351.211,152.427,352,160,352
				c7.573,0,14.955-0.789,22.123-2.155c0.427-0.085,0.853-0.107,1.259-0.192c6.869-1.387,13.483-3.477,19.861-6.016
				c0.747-0.299,1.515-0.512,2.261-0.832c6.293-2.645,12.245-5.909,17.92-9.579c0.704-0.448,1.451-0.832,2.133-1.301
				c5.931-4.011,11.435-8.576,16.533-13.568c0.256-0.256,0.555-0.427,0.811-0.661c0.043-0.043,0.043-0.128,0.085-0.171
				c21.205-21.248,34.347-50.539,34.347-82.859C277.333,169.963,224.704,117.333,160,117.333z M217.643,310.933
				c-2.24,1.685-4.459,3.392-6.827,4.843c-1.92,1.195-3.968,2.176-5.973,3.243c-27.733,14.229-61.952,14.229-89.685,0
				c-2.005-1.067-4.053-2.048-5.973-3.243c-2.368-1.451-4.587-3.157-6.827-4.843c-1.685-1.28-3.285-2.645-4.885-4.032
				c11.285-24.32,35.541-40.235,62.528-40.235s51.243,15.915,62.549,40.235C220.949,308.288,219.328,309.653,217.643,310.933z
				 M128,213.333c0-17.643,14.357-32,32-32s32,14.357,32,32c0,17.643-14.357,32-32,32S128,230.976,128,213.333z M237.824,290.432
				c-9.899-16.832-24.811-29.909-42.432-37.504c10.923-9.792,17.941-23.829,17.941-39.595C213.333,183.936,189.397,160,160,160
				s-53.333,23.936-53.333,53.333c0,15.765,7.019,29.803,17.941,39.573c-17.621,7.595-32.533,20.672-42.432,37.504
				C70.848,274.667,64,255.509,64,234.667c0-52.928,43.072-96,96-96s96,43.072,96,96C256,255.509,249.152,274.667,237.824,290.432z"
			/>
			<path d="M426.667,298.667c0-5.888-4.779-10.667-10.667-10.667H309.333c-5.888,0-10.667,4.779-10.667,10.667
				s4.779,10.667,10.667,10.667H416C421.888,309.333,426.667,304.555,426.667,298.667z"/>
		</g>
	</g>
</g>
	<g>
</g>
	<g>
</g>
	<g>
</g>
	<g>
</g>
	<g>
</g>
	<g>
</g>
	<g>
</g>
	<g>
</g>
	<g>
</g>
	<g>
</g>
	<g>
</g>
	<g>
</g>
	<g>
</g>
	<g>
</g>
	<g>
</g>
</svg>
