<?xml version="1.0" encoding="iso-8859-1"?>
<!-- Generator: Adobe Illustrator 19.0.0, SVG Export Plug-In . SVG Version: 6.00 Build 0)  -->
<svg version="1.1" id="Layer_1" xmlns="http://www.w3.org/2000/svg" xmlns:xlink="http://www.w3.org/1999/xlink" x="0px" y="0px"
	 viewBox="0 0 490.667 490.667" style="enable-background:new 0 0 490.667 490.667;" xml:space="preserve">
<g>
	<g>
		<path d="M437.333,0h-384C23.915,0,0,23.936,0,53.333v384c0,29.397,23.915,53.333,53.333,53.333h384
			c29.419,0,53.333-23.936,53.333-53.333v-384C490.667,23.936,466.752,0,437.333,0z M469.333,437.333c0,17.643-14.357,32-32,32h-384
			c-17.643,0-32-14.357-32-32V106.667h448V437.333z M469.333,85.333h-448v-32c0-17.643,14.357-32,32-32h384
			c17.643,0,32,14.357,32,32V85.333z"/>
	</g>
</g>
<g>
	<g>
		<circle cx="53.333" cy="53.333" r="10.667"/>
	</g>
</g>
<g>
	<g>
		<circle cx="96" cy="53.333" r="10.667"/>
	</g>
</g>
<g>
	<g>
		<circle cx="138.667" cy="53.333" r="10.667"/>
	</g>
</g>
<g>
	<g>
		<path d="M224,149.333H74.667C68.779,149.333,64,154.112,64,160v106.667c0,5.888,4.779,10.667,10.667,10.667H224
			c5.888,0,10.667-4.779,10.667-10.667V160C234.667,154.112,229.888,149.333,224,149.333z M213.333,256h-128v-85.333h128V256z"/>
	</g>
</g>
<g>
	<g>
		<path d="M416,149.333H266.667c-5.888,0-10.667,4.779-10.667,10.667v106.667c0,5.888,4.779,10.667,10.667,10.667H416
			c5.888,0,10.667-4.779,10.667-10.667V160C426.667,154.112,421.888,149.333,416,149.333z M405.333,256h-128v-85.333h128V256z"/>
	</g>
</g>
<g>
	<g>
		<path d="M224,298.667H74.667c-5.888,0-10.667,4.779-10.667,10.667V416c0,5.888,4.779,10.667,10.667,10.667H224
			c5.888,0,10.667-4.779,10.667-10.667V309.333C234.667,303.445,229.888,298.667,224,298.667z M213.333,405.333h-128V320h128
			V405.333z"/>
	</g>
</g>
<g>
	<g>
		<path d="M416,298.667H266.667c-5.888,0-10.667,4.779-10.667,10.667V416c0,5.888,4.779,10.667,10.667,10.667H416
			c5.888,0,10.667-4.779,10.667-10.667V309.333C426.667,303.445,421.888,298.667,416,298.667z M405.333,405.333h-128V320h128
			V405.333z"/>
	</g>
</g>
<g>
</g>
<g>
</g>
<g>
</g>
<g>
</g>
<g>
</g>
<g>
</g>
<g>
</g>
<g>
</g>
<g>
</g>
<g>
</g>
<g>
</g>
<g>
</g>
<g>
</g>
<g>
</g>
<g>
</g>
</svg>
